<?xml version="1.0" encoding="UTF-8" standalone="no"?>
<!-- Created with Inkscape (http://www.inkscape.org/) -->

<svg
   version="1.1"
   id="svg1"
   width="677"
   height="369"
   viewBox="0 0 677 369"
   sodipodi:docname="Nouveau_logo-removebg-preview.svg"
   inkscape:version="1.4.2 (f4327f4, 2025-05-13)"
   xmlns:inkscape="http://www.inkscape.org/namespaces/inkscape"
   xmlns:sodipodi="http://sodipodi.sourceforge.net/DTD/sodipodi-0.dtd"
   xmlns="http://www.w3.org/2000/svg"
   xmlns:svg="http://www.w3.org/2000/svg">
  <defs
     id="defs1" />
  <sodipodi:namedview
     id="namedview1"
     pagecolor="#ffffff"
     bordercolor="#000000"
     borderopacity="0.25"
     inkscape:showpageshadow="2"
     inkscape:pageopacity="0.0"
     inkscape:pagecheckerboard="0"
     inkscape:deskcolor="#d1d1d1"
     inkscape:zoom="2.0948509"
     inkscape:cx="338.4489"
     inkscape:cy="184.5"
     inkscape:window-width="1920"
     inkscape:window-height="991"
     inkscape:window-x="2391"
     inkscape:window-y="-9"
     inkscape:window-maximized="1"
     inkscape:current-layer="g1" />
  <g
     inkscape:groupmode="layer"
     inkscape:label="Image"
     id="g1">
    <g
       id="g2"
       transform="translate(21.481242,1.4320828)">
      <path
         style="fill:#93bd4d"
         d="m 183.91376,279.71238 c -0.36667,-0.36667 -0.66667,-9.36667 -0.66667,-20 v -19.33334 h -8 -8 v -5.01913 -5.01913 l 22.25,0.26913 22.25,0.26913 v 4.5 4.5 l -8,0.5 -8,0.5 -0.27114,19.75 -0.27114,19.75 h -5.31219 c -2.92171,0 -5.6122,-0.3 -5.97886,-0.66666 z m 34.33333,-24.28562 v -25.04772 h 12.95078 c 16.89256,0 22.23534,1.16859 27.40962,5.9951 3.77842,3.52447 4.05515,4.16723 4.44759,10.33036 0.4631,7.27289 -1.48558,11.92282 -6.3256,15.09413 -1.36532,0.89458 -2.48239,1.96602 -2.48239,2.38095 0,0.41494 2.25,3.8797 5,7.69946 2.75,3.81977 5,7.2949 5,7.72252 0,0.42761 -2.90405,0.77748 -6.45343,0.77748 h -6.45343 l -4.79657,-7.46689 -4.79657,-7.4669 -5.20619,-0.0331 -5.20619,-0.0331 -0.29381,7.25 -0.29381,7.25 -6.25,0.29772 -6.25,0.29772 z m 30.77488,-2.57239 c 1.86325,-2.16616 2.27043,-3.49875 1.79517,-5.87508 -1.00964,-5.04821 -2.81313,-6.05104 -11.5997,-6.45006 l -7.97035,-0.36196 v 8.2374 8.23739 l 7.68251,-0.49304 c 6.87169,-0.44099 7.93686,-0.78872 10.09237,-3.29465 z m 18.22512,26.49906 c 0,-0.56409 2.08057,-5.40159 4.62348,-10.75 2.54292,-5.34841 6.82977,-14.44939 9.52634,-20.22439 8.98689,-19.24637 7.5119,-17.5 14.78047,-17.5 h 6.33274 l 7.61848,16.05045 c 13.57241,28.59401 15.11851,31.93805 15.1185,32.69955 -10e-6,0.4125 -2.67145,0.75 -5.93654,0.75 h -5.93653 l -2.81347,-5.25 -2.81347,-5.25 -11.79064,-0.28208 -11.79063,-0.28209 -2.53267,5.53209 -2.53268,5.53208 h -5.92669 c -3.38314,0 -5.92669,-0.44016 -5.92669,-1.02561 z m 34.38038,-24.64895 c -1.38026,-3.12101 -3.20694,-7.02315 -4.05929,-8.67141 -1.81783,-3.51529 -1.8649,-3.46039 -6.34077,7.39368 l -2.86689,6.95229 h 7.88826 7.88825 z m 39.02067,19.97315 c -1.39253,-3.18922 -3.36444,-7.59859 -4.38203,-9.79859 -9.27,-20.04158 -14.01902,-31.25598 -14.01902,-33.10471 0,-1.88265 10.29843,-1.94555 11.85302,-0.0724 0.60384,0.72759 4.04829,8.03194 7.65433,16.23189 3.60604,8.19995 6.93597,15.28854 7.39986,15.75243 0.46389,0.46389 2.21951,-2.45296 3.90138,-6.48189 1.68186,-4.02893 5.09823,-11.71283 7.59192,-17.07533 l 4.53398,-9.75 h 5.64116 c 5.62073,0 5.63873,0.01 4.96766,2.68345 -0.37042,1.47589 -5.08972,12.61339 -10.48732,24.75 l -9.81383,22.06655 -6.15462,0.29859 -6.15462,0.29859 z m 31.59895,4.87356 c 0,-1.26208 3.43846,-8.91999 11.976,-26.67215 3.96767,-8.25 7.90278,-16.70677 8.74468,-18.79282 l 1.53075,-3.79282 6.55333,0.29282 6.55333,0.29282 10.50642,22.27152 c 5.77852,12.24933 10.83954,22.14933 11.24671,22 1.17405,-0.4306 14.87232,-19.15435 14.88098,-20.34037 0.004,-0.58787 -3.5922,-5.95689 -7.9922,-11.93115 -4.4,-5.97426 -8,-11.25133 -8,-11.72683 0,-0.4755 3.02163,-0.73149 6.71474,-0.56886 l 6.71475,0.29569 5.46977,7.70802 5.46978,7.70802 5.84115,-7.95802 5.84116,-7.95802 h 5.97432 c 3.512,0 5.97433,0.43346 5.97433,1.0517 0,0.57843 -3.63388,5.97389 -8.07528,11.9899 l -8.07529,10.93821 2.31127,3.2601 c 1.27119,1.79305 5.13007,7.04719 8.57528,11.67587 3.44521,4.62867 6.26402,9.01617 6.26402,9.75 0,0.97338 -1.73165,1.33422 -6.40276,1.33422 h -6.40277 l -3.84723,-5.59173 c -2.11598,-3.07545 -4.71364,-6.96461 -5.77257,-8.64259 -2.2263,-3.52778 -1.48171,-4.10287 -9.81922,7.58387 l -4.74455,6.65045 h -10.94198 -10.94198 l -2.81347,-5.25 -2.81347,-5.25 -11.4157,-0.2843 c -7.11434,-0.17718 -11.81657,0.11658 -12.47961,0.77961 -0.58515,0.58515 -1.80459,2.96309 -2.70986,5.2843 l -1.64596,4.22039 -6.12444,0.29772 c -3.36844,0.16375 -6.12443,-0.11776 -6.12443,-0.62557 z m 36,-20.2604 c 0,-0.59854 -1.35,-4.00494 -3,-7.56977 -1.65,-3.56483 -3,-6.90012 -3,-7.41175 0,-0.51162 -0.39459,-0.93023 -0.87686,-0.93023 -0.78273,0 -2.22688,2.92791 -6.78202,13.75 l -1.36796,3.25 h 7.51342 c 4.74849,0 7.51342,-0.40047 7.51342,-1.08825 z m -203.8,-49.11175 c -0.66,-0.66 -1.2,-1.9306 -1.2,-2.82355 0,-0.89296 5.71233,-9.69046 12.69406,-19.55 25.22713,-35.62552 27.30594,-38.69803 27.30594,-40.35859 0,-0.92741 -4.6141,-8.18458 -10.25355,-16.12703 -5.63945,-7.94245 -12.16648,-17.14083 -14.50451,-20.44083 -2.33804,-3.3 -6.72394,-9.44351 -9.74646,-13.65226 -5.55345,-7.732982 -6.48053,-10.462691 -4.29548,-12.647736 1.68975,-1.68975 69.58477,-1.710816 73.2897,-0.02274 1.42109,0.647493 4.90959,4.359993 7.75222,8.25 6.59888,9.030276 20.17977,27.432196 29.02077,39.322736 3.78272,5.0875 7.19946,9.25 7.59277,9.25 0.3933,0 3.77485,-4.275 7.51456,-9.5 3.7397,-5.225 7.16309,-9.5 7.60753,-9.5 1.09289,0 20.02245,23.6535 20.02245,25.01912 0,1.08144 -11.89682,17.73237 -19.55817,27.37385 l -4.05818,5.10703 -13.69182,0.27822 c -7.53051,0.15302 -13.69183,0.009 -13.69183,-0.31982 0,-0.32893 1.35,-2.5602 3,-4.9584 1.65,-2.39819 3,-4.9962 3,-5.77334 0,-0.77715 -2.3625,-4.61671 -5.25,-8.53236 -14.08391,-19.09877 -20.38072,-27.72847 -21.75,-29.80814 -4.14943,-6.30214 -18.09533,-25.22038 -19.37379,-26.28141 -1.41724,-1.1762 -23.28449,-1.7798 -24.39102,-0.67327 -0.26426,0.26426 5.93609,9.33511 13.77854,20.15747 12.218,16.86049 14.259,20.20551 14.259,23.36931 0,3.69814 -1.61159,6.39327 -14.37605,24.04174 -2.18786,3.025 -4.74336,6.625 -5.67887,8 -5.90779,8.68316 -17.01127,24.15286 -19.91774,27.75 l -3.43397,4.25 h -10.23305 c -6.62571,0 -10.65607,-0.42302 -11.43305,-1.2 z m 42.46667,0.53334 c -2.36263,-2.36263 0.10403,-6.78916 17.3945,-31.2152 1.40864,-1.98998 4.28461,-6.09314 6.39105,-9.11814 15.0751,-21.64899 16.88898,-23.96172 18.04243,-23.00444 0.65393,0.54272 3.8192,4.81939 7.03393,9.50373 l 5.84496,8.51696 -3.37841,4.74188 c -12.52154,17.57499 -14.26379,20.45784 -12.88349,21.31805 0.7636,0.47587 12.88371,0.76591 26.93358,0.64453 21.71104,-0.18758 25.91968,-0.46618 28.04004,-1.85619 3.01315,-1.97527 5.04443,-4.63195 30.4802,-39.86452 6.5516,-9.075 14.16707,-19.51426 16.92327,-23.19835 9.39408,-12.55668 16.51127,-22.54601 16.51127,-23.17439 0,-0.34499 -2.885,-0.62726 -6.41111,-0.62726 -5.92044,0 -6.6077,0.23364 -8.97984,3.05277 -1.4128,1.67902 -2.94341,3.72228 -3.40135,4.54058 -0.45794,0.8183 -1.47952,1.22651 -2.27016,0.90715 -1.24463,-0.50274 -9.85755,-11.42454 -10.76089,-13.645561 -0.61709,-1.517242 7.08269,-11.937685 9.89579,-13.392397 4.34544,-2.247112 57.0969,-2.150338 59.35613,0.10889 0.86429,0.864286 1.57143,1.823671 1.57143,2.131966 0,1.106386 -4.61016,8.029428 -14.51469,21.796602 -5.53962,7.7 -10.72752,14.9721 -11.52867,16.16021 -1.61883,2.40072 -20.66441,28.74271 -28.45664,39.35842 -2.75,3.74646 -8.69911,11.91241 -13.22024,18.14656 -15.3808,21.20846 -18.76528,25.32151 -22.28581,27.08326 -3.18954,1.59611 -7.94456,1.74858 -54.57728,1.75 -28.09584,8.5e-4 -51.38334,-0.29845 -51.75,-0.66511 z m 134.57326,-0.87784 c -3.27447,-2.29352 -8.50163,-10.34676 -7.98877,-12.30792 0.55422,-2.11937 8.97971,-14.01986 9.97824,-14.09366 0.40118,-0.0297 2.59599,1.97108 4.87736,4.44608 3.91598,4.24833 4.44513,4.5 9.46158,4.5 2.92249,0 5.57502,-0.42294 5.8945,-0.93988 0.67624,-1.09418 -1.2901,-4.4128 -7.21284,-12.1732 -2.3375,-3.06276 -4.25,-6.22103 -4.25,-7.01838 0,-1.73372 11.67152,-17.86854 12.92565,-17.86854 0.48087,0 5.72412,6.8625 11.65166,15.25 27.56906,39.01033 26.89342,37.87927 24.22269,40.55 -0.87635,0.87635 -8.77278,1.2 -29.2775,1.2 -23.69884,0 -28.42137,-0.24086 -30.28257,-1.5445 z m -19.34949,-76.7055 c -2.9615,-3.9875 -8.79907,-11.53993 -12.97238,-16.78317 -4.1733,-5.24325 -8.37109,-10.72859 -9.32841,-12.18966 -0.95733,-1.46106 -2.26913,-2.44434 -2.91512,-2.18506 -0.64599,0.25929 -2.97453,2.99829 -5.17453,6.08668 -2.2,3.08839 -6.10944,8.27135 -8.68765,11.51769 l -4.68765,5.90244 -4.20205,-5.29946 c -2.31112,-2.9147 -5.30526,-6.95867 -6.65363,-8.9866 l -2.4516,-3.68714 3.28004,-4.81286 c 1.80401,-2.64707 4.47821,-6.387856 5.94264,-8.312856 1.46444,-1.925 5.87303,-7.836872 9.79687,-13.137492 3.92385,-5.300621 7.85254,-9.913121 8.73043,-10.25 2.79479,-1.072462 6.91733,-0.661716 9.16589,0.913236 1.19807,0.83916 7.91426,9.05166 14.92486,18.25 7.01061,9.198341 15.42598,20.033352 18.70083,24.077802 5.13825,6.34576 5.83002,7.68308 5.04764,9.75805 -1.33134,3.53091 -10.72165,16.30464 -12.01913,16.34973 -0.61187,0.0213 -3.53555,-3.22383 -6.49705,-7.21133 z"
         id="path4" />
      <path
         style="fill:#c16e32"
         d="m 183.91376,278.71238 c -0.36667,-0.36667 -0.66667,-9.12274 -0.66667,-19.45794 v -18.79127 l -7.75,-0.29206 -7.75,-0.29207 -0.3075,-4.25 -0.3075,-4.25 h 22.0575 22.0575 v 4.5 4.5 h -8 -8 v 19.5 19.5 h -5.33333 c -2.93334,0 -5.63334,-0.3 -6,-0.66666 z m 34.33333,-23.33334 v -24 h 15.68427 c 13.85559,0 16.18665,0.2432 19.99302,2.08583 5.56268,2.69285 8.52131,6.92566 9.10789,13.03036 0.59287,6.17007 -1.02633,10.07842 -5.90577,14.25504 l -3.84468,3.2909 4.98264,7.0722 c 2.74044,3.88971 4.98263,7.36221 4.98263,7.71665 0,0.35445 -2.79353,0.51049 -6.20784,0.34674 l -6.20783,-0.29772 -4.54217,-6.78327 -4.54216,-6.78327 -5.5,0.28327 -5.5,0.28327 -0.29569,6.75 -0.29569,6.75 h -5.95431 -5.95431 z m 31.19817,-1.9964 c 1.53146,-1.89127 1.87672,-3.40859 1.46837,-6.45305 -0.76214,-5.68218 -2.66984,-6.67655 -12.15765,-6.33709 l -8.00889,0.28654 -0.30147,6.39468 c -0.4454,9.44758 -0.51575,9.37691 8.90852,8.94893 7.16565,-0.32541 8.31739,-0.64955 10.09112,-2.84001 z m 22.45091,16.2464 c 2.52097,-5.3625 7.54365,-16.1625 11.16152,-24 l 6.57794,-14.25 h 6.18329 c 3.78344,0 6.5446,0.48515 7.11424,1.25 0.51202,0.6875 3.11622,5.975 5.78711,11.75 6.42255,13.88689 14.51984,31.06472 15.6734,33.25 0.83391,1.57975 0.30729,1.75 -5.41293,1.75 h -6.33672 l -2.11243,-5 -2.11244,-5 h -12.45271 -12.4527 l -2.07791,5 -2.0779,5 h -6.02267 -6.02267 z m 30.44597,-14.00884 c -1.03167,-2.61737 -2.88017,-6.68585 -4.10778,-9.04107 -2.18196,-4.18619 -2.25809,-4.23085 -3.39475,-1.99116 -1.53952,3.03351 -6.59252,14.80425 -6.59252,15.35699 0,0.23874 3.59343,0.43408 7.98541,0.43408 h 7.9854 z m 37.27405,16.00884 c -4.72237,-10.22188 -17.3691,-39.18888 -17.3691,-39.78347 0,-0.25659 2.64222,-0.46653 5.8716,-0.46653 h 5.87161 l 4.75903,10.75 c 2.61747,5.9125 6.13273,13.63601 7.81169,17.16336 l 3.05264,6.41335 1.29957,-2.91335 c 0.71477,-1.60235 4.15346,-9.21336 7.64154,-16.91336 l 6.34196,-14 5.67518,-0.2999 c 3.12135,-0.16495 5.67518,-0.0458 5.67518,0.26477 0,0.50839 -9.41129,21.99936 -14.02877,32.03513 -1.01222,2.2 -2.97008,6.5875 -4.35079,9.75 l -2.51038,5.75 h -6.08028 -6.08028 z m 36.01079,0.5 c 1.83117,-3.9875 6.87209,-14.7875 11.20204,-24 l 7.87265,-16.75 6.52271,0.01 6.52271,0.01 10.40261,22.45498 c 5.72144,12.35023 10.77757,22.22324 11.23584,21.94002 2.20383,-1.36205 15.76068,-20.78173 15.20214,-21.77651 -0.82019,-1.46081 -5.6754,-8.18398 -11.09059,-15.35751 -2.3375,-3.0965 -4.25,-6.00134 -4.25,-6.45521 0,-0.45386 2.90917,-0.82521 6.46481,-0.82521 5.46326,0 6.63235,0.31303 7.54618,2.02053 2.19688,4.10492 9.27066,12.92344 10.00332,12.47063 0.41636,-0.25733 2.9129,-3.62311 5.54787,-7.47951 l 4.79084,-7.01165 h 6.38251 c 4.6854,0 6.18663,0.31693 5.64587,1.19189 -0.95403,1.54366 -10.0407,13.80469 -11.84207,15.97901 -4.68916,5.65999 -4.63357,5.84064 6.12907,19.92023 4.03238,5.27512 7.3316,9.88762 7.3316,10.25 0,0.36238 -2.87375,0.65887 -6.38611,0.65887 h -6.3861 l -4.3639,-6.08676 c -7.74672,-10.80514 -7.28647,-10.36058 -8.92125,-8.61703 -0.79345,0.84624 -3.46764,4.49385 -5.94264,8.1058 l -4.5,6.56717 -11.62686,0.0154 -11.62685,0.0154 -2.15095,-5 -2.15094,-5 h -12.33887 -12.33888 l -2.07791,5 -2.0779,5 h -6.03018 -6.03017 z m 32.62011,-13.12777 c 0,-1.79108 -6.25264,-15.62223 -7.06233,-15.62223 -0.68116,0 -6.263,11.16392 -7.37485,14.75 -0.68103,2.19657 -0.5179,2.25 6.86979,2.25 5.76154,0 7.56739,-0.32878 7.56739,-1.37777 z m -203.25,-48.6536 c -0.9625,-0.5874 -1.75,-1.64166 -1.75,-2.3428 0,-1.09983 8.5039,-13.77489 19.80569,-29.52038 1.81814,-2.533 4.51814,-6.35346 6,-8.48993 4.63427,-6.6814 5.56708,-8.00086 10.44431,-14.77352 2.6125,-3.62779 4.75,-7.03076 4.75,-7.56216 0,-1.06779 -3.16013,-5.67572 -25.66132,-37.418 -8.43628,-11.900991 -15.33868,-22.374629 -15.33868,-23.274752 0,-0.900122 1.15429,-2.075448 2.5651,-2.611835 3.48156,-1.323686 64.84592,-1.266542 69.6397,0.06485 3.84857,1.068876 6.76302,4.373875 19.7952,22.447847 3.025,4.19529 9.1019,12.43925 13.50422,18.31992 4.40233,5.88068 8.8002,11.92963 9.77306,13.44213 0.97285,1.5125 2.42405,2.75 3.22487,2.75 0.80083,0 4.44877,-4.05 8.10653,-9 3.65777,-4.95 6.99214,-9 7.40972,-9 0.75104,0 6.8116,7.10274 15.57954,18.25862 l 4.52598,5.75861 -2.28803,3.24139 c -1.25841,1.78276 -4.5488,6.23619 -7.31196,9.89652 -2.76316,3.66032 -6.95196,9.34903 -9.30844,12.64156 -3.39367,4.74173 -4.95307,6.08587 -7.5,6.46466 -5.81395,0.86468 -22.51796,0.86728 -23.05175,0.004 -0.28749,-0.46517 0.82497,-3.011 2.47213,-5.6574 l 2.99484,-4.81163 -2.74066,-4.14796 c -1.50736,-2.28137 -6.4055,-9.09795 -10.88476,-15.14795 -4.47926,-6.05 -13.84808,-18.93847 -20.8196,-28.64105 -6.97152,-9.70258 -13.38959,-17.91508 -14.26238,-18.25 -2.36881,-0.909 -23.2269,-0.73577 -23.80381,0.1977 -0.27419,0.44365 1.73633,3.93115 4.46783,7.75 2.7315,3.81884 5.73204,8.06835 6.66786,9.44335 0.93583,1.375 3.75057,5.2 6.25499,8.5 7.7109,10.16044 10.98982,15.72265 10.98982,18.64264 0,2.91115 -4.92586,10.59425 -22.64629,35.3225 -5.13748,7.16918 -11.03126,15.45375 -13.09729,18.41017 -7.21818,10.32895 -5.96194,9.59429 -16.9166,9.89301 -5.71681,0.15589 -10.57309,-0.17919 -11.58982,-0.79969 z m 140.75,-9.28655 c -2.2,-1.2616 -5.98002,-3.73118 -8.40004,-5.48795 -3.46875,-2.51808 -3.95493,-3.19413 -2.29705,-3.19413 4.34609,0 7.5154,-2.64663 14.29564,-11.93805 3.8377,-5.25907 10.41906,-14.28695 14.62523,-20.06195 4.20617,-5.775 9.96582,-13.65 12.79923,-17.5 2.8334,-3.85 8.2778,-11.275 12.09865,-16.5 3.82086,-5.225 9.05505,-12.37813 11.63155,-15.89585 2.57649,-3.51772 4.44699,-6.78022 4.15665,-7.25 -0.29034,-0.46978 -3.16309,-0.85415 -6.38389,-0.85415 -5.68695,0 -5.97034,0.12991 -9.81706,4.5 -2.17858,2.475 -4.36025,4.5 -4.84816,4.5 -0.79068,0 -8.62404,-9.31223 -10.65262,-12.663758 -1.19468,-1.973789 6.80563,-12.235127 10.8599,-13.929112 4.15782,-1.737249 53.3416,-2.061041 56.49771,-0.371943 2.94951,1.578531 2.36023,4.065369 -2.62179,11.064304 -58.92347,82.777879 -73.46227,102.436729 -77.89412,105.325609 -4.86646,3.17219 -8.83955,3.24486 -14.04983,0.25698 z"
         id="path3" />
      <path
         style="fill:#5d5c5c"
         d="m 183.91376,278.71238 c -0.36667,-0.36667 -0.66667,-9.12274 -0.66667,-19.45794 v -18.79127 l -7.75,-0.29206 -7.75,-0.29207 -0.3075,-4.25 -0.3075,-4.25 h 22.0575 22.0575 v 4.5 4.5 h -8 -8 v 19.5 19.5 h -5.33333 c -2.93334,0 -5.63334,-0.3 -6,-0.66666 z m 34.33333,-23.33334 v -24 h 15.68427 c 13.85559,0 16.18665,0.2432 19.99302,2.08583 5.56268,2.69285 8.52131,6.92566 9.10789,13.03036 0.59287,6.17007 -1.02633,10.07842 -5.90577,14.25504 l -3.84468,3.2909 4.98264,7.0722 c 2.74044,3.88971 4.98263,7.36221 4.98263,7.71665 0,0.35445 -2.79353,0.51049 -6.20784,0.34674 l -6.20783,-0.29772 -4.54217,-6.78327 -4.54216,-6.78327 -5.5,0.28327 -5.5,0.28327 -0.29569,6.75 -0.29569,6.75 h -5.95431 -5.95431 z m 31.19817,-1.9964 c 1.53146,-1.89127 1.87672,-3.40859 1.46837,-6.45305 -0.76214,-5.68218 -2.66984,-6.67655 -12.15765,-6.33709 l -8.00889,0.28654 -0.30147,6.39468 c -0.4454,9.44758 -0.51575,9.37691 8.90852,8.94893 7.16565,-0.32541 8.31739,-0.64955 10.09112,-2.84001 z m 22.45091,16.2464 c 2.52097,-5.3625 7.54365,-16.1625 11.16152,-24 l 6.57794,-14.25 h 6.18329 c 3.78344,0 6.5446,0.48515 7.11424,1.25 0.51202,0.6875 3.11622,5.975 5.78711,11.75 6.42255,13.88689 14.51984,31.06472 15.6734,33.25 0.83391,1.57975 0.30729,1.75 -5.41293,1.75 h -6.33672 l -2.11243,-5 -2.11244,-5 h -12.45271 -12.4527 l -2.07791,5 -2.0779,5 h -6.02267 -6.02267 z m 30.44597,-14.00884 c -1.03167,-2.61737 -2.88017,-6.68585 -4.10778,-9.04107 -2.18196,-4.18619 -2.25809,-4.23085 -3.39475,-1.99116 -1.53952,3.03351 -6.59252,14.80425 -6.59252,15.35699 0,0.23874 3.59343,0.43408 7.98541,0.43408 h 7.9854 z m 37.27405,16.00884 c -4.72237,-10.22188 -17.3691,-39.18888 -17.3691,-39.78347 0,-0.25659 2.64222,-0.46653 5.8716,-0.46653 h 5.87161 l 4.75903,10.75 c 2.61747,5.9125 6.13273,13.63601 7.81169,17.16336 l 3.05264,6.41335 1.29957,-2.91335 c 0.71477,-1.60235 4.15346,-9.21336 7.64154,-16.91336 l 6.34196,-14 5.67518,-0.2999 c 3.12135,-0.16495 5.67518,-0.0458 5.67518,0.26477 0,0.50839 -9.41129,21.99936 -14.02877,32.03513 -1.01222,2.2 -2.97008,6.5875 -4.35079,9.75 l -2.51038,5.75 h -6.08028 -6.08028 z m 36.01079,0.5 c 1.83117,-3.9875 6.87209,-14.7875 11.20204,-24 l 7.87265,-16.75 6.52271,0.01 6.52271,0.01 10.40261,22.45498 c 5.72144,12.35023 10.77757,22.22324 11.23584,21.94002 2.20383,-1.36205 15.76068,-20.78173 15.20214,-21.77651 -0.82019,-1.46081 -5.6754,-8.18398 -11.09059,-15.35751 -2.3375,-3.0965 -4.25,-6.00134 -4.25,-6.45521 0,-0.45386 2.90917,-0.82521 6.46481,-0.82521 5.46326,0 6.63235,0.31303 7.54618,2.02053 2.19688,4.10492 9.27066,12.92344 10.00332,12.47063 0.41636,-0.25733 2.9129,-3.62311 5.54787,-7.47951 l 4.79084,-7.01165 h 6.38251 c 4.6854,0 6.18663,0.31693 5.64587,1.19189 -0.95403,1.54366 -10.0407,13.80469 -11.84207,15.97901 -4.68916,5.65999 -4.63357,5.84064 6.12907,19.92023 4.03238,5.27512 7.3316,9.88762 7.3316,10.25 0,0.36238 -2.87375,0.65887 -6.38611,0.65887 h -6.3861 l -4.3639,-6.08676 c -7.74672,-10.80514 -7.28647,-10.36058 -8.92125,-8.61703 -0.79345,0.84624 -3.46764,4.49385 -5.94264,8.1058 l -4.5,6.56717 -11.62686,0.0154 -11.62685,0.0154 -2.15095,-5 -2.15094,-5 h -12.33887 -12.33888 l -2.07791,5 -2.0779,5 h -6.03018 -6.03017 z m 32.62011,-13.12777 c 0,-1.79108 -6.25264,-15.62223 -7.06233,-15.62223 -0.68116,0 -6.263,11.16392 -7.37485,14.75 -0.68103,2.19657 -0.5179,2.25 6.86979,2.25 5.76154,0 7.56739,-0.32878 7.56739,-1.37777 z"
         id="path2" />
    </g>
  </g>
</svg>
