<svg clip-rule="evenodd" fill-rule="evenodd" stroke-linejoin="round" stroke-miterlimit="2" viewBox="0 0 560 400" xmlns="http://www.w3.org/2000/svg"><g fill-rule="nonzero" transform="matrix(.845666 0 0 .845666 70.8584 124.008)"><path d="m287.45 110.25v-11.71s-13.65 2.68-32.37 2.68c-9.1 0-15.1-1.07-18.34-1.39-.02-2.82 0-10.81 0-13.65 3.62-.36 9.72-1.41 18.46-1.41 18.24.08 32.24 2.78 32.24 2.78v-11.81s-12.5-3.12-32.24-3.12c-19.87 0-32.22 3.12-32.22 3.12v34.5s12.56 3.1 32.22 3.1c19.55.01 32.25-3.09 32.25-3.09m-93.76 2.34h13.71v-39.31h-13.69v24.43s-10.2-7.55-25.2-15.32c-13.12-6.8-24.68-9.06-24.68-9.06v39.23h13.67v-20.96c3.28 1.33 6.82 2.78 10.99 4.95 15 7.79 25.2 16.02 25.2 16.04m-124.18-16.43c-3.16-2.94-24.56-23.53-24.56-23.53l-10.49 9.52 35.04 31.48 35-31.46-10.44-9.57c0 .02-21.39 20.63-24.55 23.56m44.42 16.41h14.11v-39.29h-14.11zm202.92-39.29h-14.11v39.31h14.11z" fill="#004489"/><path d="m413.97 67.18c3.02 0 5.47-2.46 5.47-5.47v-21.3c0-3.02-2.46-5.47-5.47-5.47h-21.29c-3.02 0-5.47 2.46-5.49 5.47v16.34c0 5.07-3.86 9.42-5.54 11.15-1.65 1.75-6.16 5.39-13.32 5.41h-19.64v32.39h32.39v-19.64c.02-7.19 3.64-11.67 5.39-13.32 1.73-1.67 6.1-5.54 11.17-5.54zm40.78 10.11c-3.36-3.4-8.05-5.45-13.24-5.45-10.65 0-19.12 8.65-19.12 19 0 1.89.83 5.47.83 6.98 0 8.13-6.58 14.73-14.73 14.73h-15.8c-3.02 0-5.47 2.46-5.49 5.47v21.29c0 3.02 2.46 5.47 5.47 5.47h21.27c3.02 0 5.47-2.46 5.47-5.47v-15.78c0-8.13 6.58-14.73 14.73-14.73h.02c1.53 0 5.09.83 6.98.83 10.37 0 19.02-8.49 19.02-19.14.02-4.93-1.93-9.68-5.41-13.2" fill="#e20025"/></g></svg>